<?xml version="1.0" standalone="no"?>
<!DOCTYPE svg PUBLIC "-//W3C//DTD SVG 20010904//EN"
 "http://www.w3.org/TR/2001/REC-SVG-20010904/DTD/svg10.dtd">
<svg version="1.0" xmlns="http://www.w3.org/2000/svg"
 width="320.000000pt" height="320.000000pt" viewBox="0 0 320.000000 320.000000"
 preserveAspectRatio="xMidYMid meet">
<metadata>
Created by potrace 1.14, written by Peter Selinger 2001-2017
</metadata>
<g transform="translate(0.000000,320.000000) scale(0.100000,-0.100000)"
fill="#000000" stroke="none">
<path d="M1240 2863 c6 -82 5 -83 -55 -83 l-55 0 0 -60 0 -60 -60 0 -60 0 0
-60 0 -60 -60 0 -60 0 0 -355 0 -355 -60 0 -60 0 0 -120 0 -120 60 0 60 0 0
-60 0 -60 -60 0 -60 0 0 -60 0 -60 -60 0 -60 0 0 -175 0 -176 116 2 c63 0 117
-1 119 -3 3 -2 5 -57 6 -122 l1 -118 62 4 61 3 0 -65 0 -65 -62 3 -63 3 0
-120 0 -121 293 3 292 2 3 57 c3 52 5 58 25 59 34 2 92 -2 96 -7 2 -2 3 -28 2
-58 l-1 -54 295 0 295 -1 0 59 0 59 58 3 57 3 3 58 c3 63 2 62 90 57 l32 -2 0
61 0 61 43 1 c23 1 50 1 60 0 16 -2 17 40 17 768 l0 771 -60 0 -60 0 0 120 0
120 -60 0 -60 0 0 60 0 60 -60 0 -60 0 0 60 0 60 -60 0 -60 0 0 55 0 55 -416
0 -416 0 2 -27z"/>
</g>
</svg>
